<mxfile host="app.diagrams.net" agent="Mozilla/5.0 (Windows NT 10.0; Win64; x64) AppleWebKit/537.36 (KHTML, like Gecko) Chrome/135.0.0.0 Safari/537.36" version="26.2.14">
  <diagram id="vX6xC0HKu8AdidH3YZPW" name="Page-1">
    <mxGraphModel dx="595" dy="805" grid="1" gridSize="10" guides="1" tooltips="1" connect="1" arrows="1" fold="1" page="1" pageScale="1" pageWidth="850" pageHeight="1100" math="0" shadow="0">
      <root>
        <mxCell id="0" />
        <mxCell id="1" parent="0" />
        <mxCell id="psplkfs4_8VYPCOgKPKU-22" value="" style="group" parent="1" vertex="1" connectable="0">
          <mxGeometry x="60" y="230" width="100" height="60" as="geometry" />
        </mxCell>
        <mxCell id="psplkfs4_8VYPCOgKPKU-15" value="" style="rounded=0;whiteSpace=wrap;html=1;" parent="psplkfs4_8VYPCOgKPKU-22" vertex="1">
          <mxGeometry width="100" height="60" as="geometry" />
        </mxCell>
        <mxCell id="psplkfs4_8VYPCOgKPKU-16" value="" style="endArrow=none;html=1;rounded=0;exitX=0;exitY=0.75;exitDx=0;exitDy=0;entryX=1;entryY=0.75;entryDx=0;entryDy=0;" parent="psplkfs4_8VYPCOgKPKU-22" source="psplkfs4_8VYPCOgKPKU-15" target="psplkfs4_8VYPCOgKPKU-15" edge="1">
          <mxGeometry width="50" height="50" relative="1" as="geometry">
            <mxPoint x="-20" y="50" as="sourcePoint" />
            <mxPoint x="30" as="targetPoint" />
          </mxGeometry>
        </mxCell>
        <mxCell id="psplkfs4_8VYPCOgKPKU-17" value="" style="endArrow=none;html=1;rounded=0;exitX=0.36;exitY=0.997;exitDx=0;exitDy=0;exitPerimeter=0;" parent="psplkfs4_8VYPCOgKPKU-22" source="psplkfs4_8VYPCOgKPKU-15" edge="1">
          <mxGeometry width="50" height="50" relative="1" as="geometry">
            <mxPoint x="-20" y="50" as="sourcePoint" />
            <mxPoint x="36" y="45" as="targetPoint" />
          </mxGeometry>
        </mxCell>
        <mxCell id="psplkfs4_8VYPCOgKPKU-19" value="4.1" style="text;html=1;align=center;verticalAlign=middle;whiteSpace=wrap;rounded=0;fontSize=8;" parent="psplkfs4_8VYPCOgKPKU-22" vertex="1">
          <mxGeometry x="7" y="47" width="20" height="10" as="geometry" />
        </mxCell>
        <mxCell id="psplkfs4_8VYPCOgKPKU-21" value="Обработка заявки" style="text;html=1;align=center;verticalAlign=middle;whiteSpace=wrap;rounded=0;fontSize=8;" parent="psplkfs4_8VYPCOgKPKU-22" vertex="1">
          <mxGeometry x="10" y="8" width="80" height="30" as="geometry" />
        </mxCell>
        <mxCell id="psplkfs4_8VYPCOgKPKU-30" value="" style="group" parent="1" vertex="1" connectable="0">
          <mxGeometry x="170" y="230" width="100" height="60" as="geometry" />
        </mxCell>
        <mxCell id="psplkfs4_8VYPCOgKPKU-24" value="" style="rounded=0;whiteSpace=wrap;html=1;" parent="psplkfs4_8VYPCOgKPKU-30" vertex="1">
          <mxGeometry width="100" height="60" as="geometry" />
        </mxCell>
        <mxCell id="psplkfs4_8VYPCOgKPKU-25" value="" style="endArrow=none;html=1;rounded=0;exitX=0;exitY=0.75;exitDx=0;exitDy=0;entryX=1;entryY=0.75;entryDx=0;entryDy=0;" parent="psplkfs4_8VYPCOgKPKU-30" source="psplkfs4_8VYPCOgKPKU-24" target="psplkfs4_8VYPCOgKPKU-24" edge="1">
          <mxGeometry width="50" height="50" relative="1" as="geometry">
            <mxPoint x="-20" y="50" as="sourcePoint" />
            <mxPoint x="30" as="targetPoint" />
          </mxGeometry>
        </mxCell>
        <mxCell id="psplkfs4_8VYPCOgKPKU-26" value="" style="endArrow=none;html=1;rounded=0;" parent="psplkfs4_8VYPCOgKPKU-30" edge="1">
          <mxGeometry width="50" height="50" relative="1" as="geometry">
            <mxPoint x="12" y="45" as="sourcePoint" />
            <mxPoint x="12" as="targetPoint" />
          </mxGeometry>
        </mxCell>
        <mxCell id="psplkfs4_8VYPCOgKPKU-27" value="4.1" style="text;html=1;align=center;verticalAlign=middle;whiteSpace=wrap;rounded=0;fontSize=8;" parent="psplkfs4_8VYPCOgKPKU-30" vertex="1">
          <mxGeometry x="40" y="47" width="20" height="10" as="geometry" />
        </mxCell>
        <mxCell id="psplkfs4_8VYPCOgKPKU-28" value="Обработка заявки" style="text;html=1;align=left;verticalAlign=middle;whiteSpace=wrap;rounded=0;fontSize=8;" parent="psplkfs4_8VYPCOgKPKU-30" vertex="1">
          <mxGeometry x="21" y="8" width="69" height="30" as="geometry" />
        </mxCell>
        <mxCell id="psplkfs4_8VYPCOgKPKU-37" value="" style="group" parent="1" vertex="1" connectable="0">
          <mxGeometry x="290" y="245" width="30" height="45" as="geometry" />
        </mxCell>
        <mxCell id="psplkfs4_8VYPCOgKPKU-31" value="" style="rounded=0;whiteSpace=wrap;html=1;" parent="psplkfs4_8VYPCOgKPKU-37" vertex="1">
          <mxGeometry width="30" height="30" as="geometry" />
        </mxCell>
        <mxCell id="psplkfs4_8VYPCOgKPKU-32" value="" style="endArrow=none;html=1;rounded=0;" parent="psplkfs4_8VYPCOgKPKU-37" edge="1">
          <mxGeometry width="50" height="50" relative="1" as="geometry">
            <mxPoint x="6" as="sourcePoint" />
            <mxPoint x="6" y="30" as="targetPoint" />
          </mxGeometry>
        </mxCell>
        <mxCell id="psplkfs4_8VYPCOgKPKU-33" value="X" style="text;html=1;align=center;verticalAlign=middle;whiteSpace=wrap;rounded=0;" parent="psplkfs4_8VYPCOgKPKU-37" vertex="1">
          <mxGeometry x="6" width="24" height="30" as="geometry" />
        </mxCell>
        <mxCell id="psplkfs4_8VYPCOgKPKU-35" value="J1" style="text;html=1;align=center;verticalAlign=middle;whiteSpace=wrap;rounded=0;fontSize=10;" parent="psplkfs4_8VYPCOgKPKU-37" vertex="1">
          <mxGeometry x="3" y="35" width="24" height="10" as="geometry" />
        </mxCell>
        <mxCell id="VEl9NrGh33cWauKll-XE-1" value="" style="group" vertex="1" connectable="0" parent="1">
          <mxGeometry x="110" y="470" width="100" height="60" as="geometry" />
        </mxCell>
        <mxCell id="VEl9NrGh33cWauKll-XE-2" value="" style="rounded=0;whiteSpace=wrap;html=1;" vertex="1" parent="VEl9NrGh33cWauKll-XE-1">
          <mxGeometry width="100" height="60" as="geometry" />
        </mxCell>
        <mxCell id="VEl9NrGh33cWauKll-XE-3" value="" style="endArrow=none;html=1;rounded=0;exitX=0;exitY=0.75;exitDx=0;exitDy=0;entryX=1;entryY=0.75;entryDx=0;entryDy=0;" edge="1" parent="VEl9NrGh33cWauKll-XE-1" source="VEl9NrGh33cWauKll-XE-2" target="VEl9NrGh33cWauKll-XE-2">
          <mxGeometry width="50" height="50" relative="1" as="geometry">
            <mxPoint x="-20" y="50" as="sourcePoint" />
            <mxPoint x="30" as="targetPoint" />
          </mxGeometry>
        </mxCell>
        <mxCell id="VEl9NrGh33cWauKll-XE-4" value="" style="endArrow=none;html=1;rounded=0;exitX=0.36;exitY=0.997;exitDx=0;exitDy=0;exitPerimeter=0;" edge="1" parent="VEl9NrGh33cWauKll-XE-1" source="VEl9NrGh33cWauKll-XE-2">
          <mxGeometry width="50" height="50" relative="1" as="geometry">
            <mxPoint x="-20" y="50" as="sourcePoint" />
            <mxPoint x="36" y="45" as="targetPoint" />
          </mxGeometry>
        </mxCell>
        <mxCell id="VEl9NrGh33cWauKll-XE-5" value="4.1" style="text;html=1;align=center;verticalAlign=middle;whiteSpace=wrap;rounded=0;fontSize=8;" vertex="1" parent="VEl9NrGh33cWauKll-XE-1">
          <mxGeometry x="7" y="47" width="20" height="10" as="geometry" />
        </mxCell>
        <mxCell id="VEl9NrGh33cWauKll-XE-6" value="Ознакомление с решением приемной комиссии" style="text;html=1;align=center;verticalAlign=middle;whiteSpace=wrap;rounded=0;fontSize=8;" vertex="1" parent="VEl9NrGh33cWauKll-XE-1">
          <mxGeometry x="10" y="8" width="80" height="30" as="geometry" />
        </mxCell>
        <mxCell id="VEl9NrGh33cWauKll-XE-7" value="" style="group" vertex="1" connectable="0" parent="1">
          <mxGeometry x="350" y="410" width="100" height="60" as="geometry" />
        </mxCell>
        <mxCell id="VEl9NrGh33cWauKll-XE-8" value="" style="rounded=0;whiteSpace=wrap;html=1;" vertex="1" parent="VEl9NrGh33cWauKll-XE-7">
          <mxGeometry width="100" height="60" as="geometry" />
        </mxCell>
        <mxCell id="VEl9NrGh33cWauKll-XE-9" value="" style="endArrow=none;html=1;rounded=0;exitX=0;exitY=0.75;exitDx=0;exitDy=0;entryX=1;entryY=0.75;entryDx=0;entryDy=0;" edge="1" parent="VEl9NrGh33cWauKll-XE-7" source="VEl9NrGh33cWauKll-XE-8" target="VEl9NrGh33cWauKll-XE-8">
          <mxGeometry width="50" height="50" relative="1" as="geometry">
            <mxPoint x="-20" y="50" as="sourcePoint" />
            <mxPoint x="30" as="targetPoint" />
          </mxGeometry>
        </mxCell>
        <mxCell id="VEl9NrGh33cWauKll-XE-10" value="" style="endArrow=none;html=1;rounded=0;exitX=0.36;exitY=0.997;exitDx=0;exitDy=0;exitPerimeter=0;" edge="1" parent="VEl9NrGh33cWauKll-XE-7" source="VEl9NrGh33cWauKll-XE-8">
          <mxGeometry width="50" height="50" relative="1" as="geometry">
            <mxPoint x="-20" y="50" as="sourcePoint" />
            <mxPoint x="36" y="45" as="targetPoint" />
          </mxGeometry>
        </mxCell>
        <mxCell id="VEl9NrGh33cWauKll-XE-11" value="4.2" style="text;html=1;align=center;verticalAlign=middle;whiteSpace=wrap;rounded=0;fontSize=8;" vertex="1" parent="VEl9NrGh33cWauKll-XE-7">
          <mxGeometry x="7" y="47" width="20" height="10" as="geometry" />
        </mxCell>
        <mxCell id="VEl9NrGh33cWauKll-XE-12" value="Подтверждение согласия на зачисление" style="text;html=1;align=center;verticalAlign=middle;whiteSpace=wrap;rounded=0;fontSize=8;" vertex="1" parent="VEl9NrGh33cWauKll-XE-7">
          <mxGeometry x="10" y="8" width="80" height="30" as="geometry" />
        </mxCell>
        <mxCell id="VEl9NrGh33cWauKll-XE-13" value="" style="group" vertex="1" connectable="0" parent="1">
          <mxGeometry x="400" y="500" width="100" height="60" as="geometry" />
        </mxCell>
        <mxCell id="VEl9NrGh33cWauKll-XE-14" value="" style="rounded=0;whiteSpace=wrap;html=1;" vertex="1" parent="VEl9NrGh33cWauKll-XE-13">
          <mxGeometry width="100" height="60" as="geometry" />
        </mxCell>
        <mxCell id="VEl9NrGh33cWauKll-XE-15" value="" style="endArrow=none;html=1;rounded=0;exitX=0;exitY=0.75;exitDx=0;exitDy=0;entryX=1;entryY=0.75;entryDx=0;entryDy=0;" edge="1" parent="VEl9NrGh33cWauKll-XE-13" source="VEl9NrGh33cWauKll-XE-14" target="VEl9NrGh33cWauKll-XE-14">
          <mxGeometry width="50" height="50" relative="1" as="geometry">
            <mxPoint x="-20" y="50" as="sourcePoint" />
            <mxPoint x="30" as="targetPoint" />
          </mxGeometry>
        </mxCell>
        <mxCell id="VEl9NrGh33cWauKll-XE-16" value="" style="endArrow=none;html=1;rounded=0;exitX=0.36;exitY=0.997;exitDx=0;exitDy=0;exitPerimeter=0;" edge="1" parent="VEl9NrGh33cWauKll-XE-13" source="VEl9NrGh33cWauKll-XE-14">
          <mxGeometry width="50" height="50" relative="1" as="geometry">
            <mxPoint x="-20" y="50" as="sourcePoint" />
            <mxPoint x="36" y="45" as="targetPoint" />
          </mxGeometry>
        </mxCell>
        <mxCell id="VEl9NrGh33cWauKll-XE-17" value="4.3" style="text;html=1;align=center;verticalAlign=middle;whiteSpace=wrap;rounded=0;fontSize=8;" vertex="1" parent="VEl9NrGh33cWauKll-XE-13">
          <mxGeometry x="7" y="47" width="20" height="10" as="geometry" />
        </mxCell>
        <mxCell id="VEl9NrGh33cWauKll-XE-18" value="Подача документов в другой ВУЗ" style="text;html=1;align=center;verticalAlign=middle;whiteSpace=wrap;rounded=0;fontSize=8;" vertex="1" parent="VEl9NrGh33cWauKll-XE-13">
          <mxGeometry x="10" y="8" width="80" height="30" as="geometry" />
        </mxCell>
        <mxCell id="VEl9NrGh33cWauKll-XE-19" value="" style="group" vertex="1" connectable="0" parent="1">
          <mxGeometry x="400" y="580" width="100" height="60" as="geometry" />
        </mxCell>
        <mxCell id="VEl9NrGh33cWauKll-XE-20" value="" style="rounded=0;whiteSpace=wrap;html=1;" vertex="1" parent="VEl9NrGh33cWauKll-XE-19">
          <mxGeometry width="100" height="60" as="geometry" />
        </mxCell>
        <mxCell id="VEl9NrGh33cWauKll-XE-21" value="" style="endArrow=none;html=1;rounded=0;exitX=0;exitY=0.75;exitDx=0;exitDy=0;entryX=1;entryY=0.75;entryDx=0;entryDy=0;" edge="1" parent="VEl9NrGh33cWauKll-XE-19" source="VEl9NrGh33cWauKll-XE-20" target="VEl9NrGh33cWauKll-XE-20">
          <mxGeometry width="50" height="50" relative="1" as="geometry">
            <mxPoint x="-20" y="50" as="sourcePoint" />
            <mxPoint x="30" as="targetPoint" />
          </mxGeometry>
        </mxCell>
        <mxCell id="VEl9NrGh33cWauKll-XE-22" value="" style="endArrow=none;html=1;rounded=0;exitX=0.36;exitY=0.997;exitDx=0;exitDy=0;exitPerimeter=0;" edge="1" parent="VEl9NrGh33cWauKll-XE-19" source="VEl9NrGh33cWauKll-XE-20">
          <mxGeometry width="50" height="50" relative="1" as="geometry">
            <mxPoint x="-20" y="50" as="sourcePoint" />
            <mxPoint x="36" y="45" as="targetPoint" />
          </mxGeometry>
        </mxCell>
        <mxCell id="VEl9NrGh33cWauKll-XE-23" value="4.4" style="text;html=1;align=center;verticalAlign=middle;whiteSpace=wrap;rounded=0;fontSize=8;" vertex="1" parent="VEl9NrGh33cWauKll-XE-19">
          <mxGeometry x="7" y="47" width="20" height="10" as="geometry" />
        </mxCell>
        <mxCell id="VEl9NrGh33cWauKll-XE-24" value="Пересдача ЕГЭ" style="text;html=1;align=center;verticalAlign=middle;whiteSpace=wrap;rounded=0;fontSize=8;" vertex="1" parent="VEl9NrGh33cWauKll-XE-19">
          <mxGeometry x="10" y="8" width="80" height="30" as="geometry" />
        </mxCell>
        <mxCell id="VEl9NrGh33cWauKll-XE-25" value="" style="group" vertex="1" connectable="0" parent="1">
          <mxGeometry x="320" y="550" width="30" height="45" as="geometry" />
        </mxCell>
        <mxCell id="VEl9NrGh33cWauKll-XE-26" value="" style="rounded=0;whiteSpace=wrap;html=1;" vertex="1" parent="VEl9NrGh33cWauKll-XE-25">
          <mxGeometry width="30" height="30" as="geometry" />
        </mxCell>
        <mxCell id="VEl9NrGh33cWauKll-XE-27" value="" style="endArrow=none;html=1;rounded=0;" edge="1" parent="VEl9NrGh33cWauKll-XE-25">
          <mxGeometry width="50" height="50" relative="1" as="geometry">
            <mxPoint x="6" as="sourcePoint" />
            <mxPoint x="6" y="30" as="targetPoint" />
          </mxGeometry>
        </mxCell>
        <mxCell id="VEl9NrGh33cWauKll-XE-28" value="X" style="text;html=1;align=center;verticalAlign=middle;whiteSpace=wrap;rounded=0;" vertex="1" parent="VEl9NrGh33cWauKll-XE-25">
          <mxGeometry x="6" width="24" height="30" as="geometry" />
        </mxCell>
        <mxCell id="VEl9NrGh33cWauKll-XE-29" value="J2" style="text;html=1;align=center;verticalAlign=middle;whiteSpace=wrap;rounded=0;fontSize=10;" vertex="1" parent="VEl9NrGh33cWauKll-XE-25">
          <mxGeometry x="3" y="35" width="24" height="10" as="geometry" />
        </mxCell>
        <mxCell id="VEl9NrGh33cWauKll-XE-42" value="" style="group" vertex="1" connectable="0" parent="1">
          <mxGeometry x="240" y="485" width="30" height="45" as="geometry" />
        </mxCell>
        <mxCell id="VEl9NrGh33cWauKll-XE-43" value="" style="rounded=0;whiteSpace=wrap;html=1;" vertex="1" parent="VEl9NrGh33cWauKll-XE-42">
          <mxGeometry width="30" height="30" as="geometry" />
        </mxCell>
        <mxCell id="VEl9NrGh33cWauKll-XE-44" value="" style="endArrow=none;html=1;rounded=0;" edge="1" parent="VEl9NrGh33cWauKll-XE-42">
          <mxGeometry width="50" height="50" relative="1" as="geometry">
            <mxPoint x="6" as="sourcePoint" />
            <mxPoint x="6" y="30" as="targetPoint" />
          </mxGeometry>
        </mxCell>
        <mxCell id="VEl9NrGh33cWauKll-XE-45" value="X" style="text;html=1;align=center;verticalAlign=middle;whiteSpace=wrap;rounded=0;" vertex="1" parent="VEl9NrGh33cWauKll-XE-42">
          <mxGeometry x="6" width="24" height="30" as="geometry" />
        </mxCell>
        <mxCell id="VEl9NrGh33cWauKll-XE-46" value="J1" style="text;html=1;align=center;verticalAlign=middle;whiteSpace=wrap;rounded=0;fontSize=10;" vertex="1" parent="VEl9NrGh33cWauKll-XE-42">
          <mxGeometry x="3" y="35" width="24" height="10" as="geometry" />
        </mxCell>
        <mxCell id="VEl9NrGh33cWauKll-XE-47" style="edgeStyle=orthogonalEdgeStyle;rounded=0;orthogonalLoop=1;jettySize=auto;html=1;entryX=0;entryY=0.5;entryDx=0;entryDy=0;" edge="1" parent="1" source="VEl9NrGh33cWauKll-XE-2" target="VEl9NrGh33cWauKll-XE-43">
          <mxGeometry relative="1" as="geometry" />
        </mxCell>
        <mxCell id="VEl9NrGh33cWauKll-XE-48" style="edgeStyle=orthogonalEdgeStyle;rounded=0;orthogonalLoop=1;jettySize=auto;html=1;entryX=0;entryY=0.5;entryDx=0;entryDy=0;" edge="1" parent="1" source="VEl9NrGh33cWauKll-XE-45" target="VEl9NrGh33cWauKll-XE-8">
          <mxGeometry relative="1" as="geometry">
            <Array as="points">
              <mxPoint x="290" y="500" />
              <mxPoint x="290" y="440" />
            </Array>
          </mxGeometry>
        </mxCell>
        <mxCell id="VEl9NrGh33cWauKll-XE-52" value="Зачислен" style="edgeLabel;html=1;align=center;verticalAlign=middle;resizable=0;points=[];" vertex="1" connectable="0" parent="VEl9NrGh33cWauKll-XE-48">
          <mxGeometry x="0.0273" y="1" relative="1" as="geometry">
            <mxPoint x="-5" y="-22" as="offset" />
          </mxGeometry>
        </mxCell>
        <mxCell id="VEl9NrGh33cWauKll-XE-53" value="Не зачислен" style="edgeLabel;html=1;align=center;verticalAlign=middle;resizable=0;points=[];" vertex="1" connectable="0" parent="VEl9NrGh33cWauKll-XE-48">
          <mxGeometry x="0.0273" y="1" relative="1" as="geometry">
            <mxPoint x="-15" y="131" as="offset" />
          </mxGeometry>
        </mxCell>
        <mxCell id="VEl9NrGh33cWauKll-XE-49" style="edgeStyle=orthogonalEdgeStyle;rounded=0;orthogonalLoop=1;jettySize=auto;html=1;entryX=0;entryY=0.5;entryDx=0;entryDy=0;" edge="1" parent="1" source="VEl9NrGh33cWauKll-XE-45" target="VEl9NrGh33cWauKll-XE-26">
          <mxGeometry relative="1" as="geometry">
            <Array as="points">
              <mxPoint x="290" y="500" />
              <mxPoint x="290" y="565" />
            </Array>
          </mxGeometry>
        </mxCell>
        <mxCell id="VEl9NrGh33cWauKll-XE-50" style="edgeStyle=orthogonalEdgeStyle;rounded=0;orthogonalLoop=1;jettySize=auto;html=1;entryX=0;entryY=0.5;entryDx=0;entryDy=0;" edge="1" parent="1" source="VEl9NrGh33cWauKll-XE-28" target="VEl9NrGh33cWauKll-XE-14">
          <mxGeometry relative="1" as="geometry">
            <Array as="points">
              <mxPoint x="360" y="565" />
              <mxPoint x="360" y="530" />
            </Array>
          </mxGeometry>
        </mxCell>
        <mxCell id="VEl9NrGh33cWauKll-XE-51" style="edgeStyle=orthogonalEdgeStyle;rounded=0;orthogonalLoop=1;jettySize=auto;html=1;entryX=0;entryY=0.5;entryDx=0;entryDy=0;" edge="1" parent="1" source="VEl9NrGh33cWauKll-XE-28" target="VEl9NrGh33cWauKll-XE-20">
          <mxGeometry relative="1" as="geometry">
            <Array as="points">
              <mxPoint x="360" y="565" />
              <mxPoint x="360" y="610" />
            </Array>
          </mxGeometry>
        </mxCell>
        <mxCell id="VEl9NrGh33cWauKll-XE-54" value="" style="group" vertex="1" connectable="0" parent="1">
          <mxGeometry x="110" y="390" width="100" height="60" as="geometry" />
        </mxCell>
        <mxCell id="VEl9NrGh33cWauKll-XE-55" value="" style="rounded=0;whiteSpace=wrap;html=1;" vertex="1" parent="VEl9NrGh33cWauKll-XE-54">
          <mxGeometry width="100" height="60" as="geometry" />
        </mxCell>
        <mxCell id="VEl9NrGh33cWauKll-XE-56" value="" style="endArrow=none;html=1;rounded=0;exitX=0;exitY=0.75;exitDx=0;exitDy=0;entryX=1;entryY=0.75;entryDx=0;entryDy=0;" edge="1" parent="VEl9NrGh33cWauKll-XE-54" source="VEl9NrGh33cWauKll-XE-55" target="VEl9NrGh33cWauKll-XE-55">
          <mxGeometry width="50" height="50" relative="1" as="geometry">
            <mxPoint x="-20" y="50" as="sourcePoint" />
            <mxPoint x="30" as="targetPoint" />
          </mxGeometry>
        </mxCell>
        <mxCell id="VEl9NrGh33cWauKll-XE-57" value="" style="endArrow=none;html=1;rounded=0;" edge="1" parent="VEl9NrGh33cWauKll-XE-54">
          <mxGeometry width="50" height="50" relative="1" as="geometry">
            <mxPoint x="12" y="45" as="sourcePoint" />
            <mxPoint x="12" as="targetPoint" />
          </mxGeometry>
        </mxCell>
        <mxCell id="VEl9NrGh33cWauKll-XE-59" value="Object/Приемная комиссия" style="text;html=1;align=left;verticalAlign=middle;whiteSpace=wrap;rounded=0;fontSize=8;" vertex="1" parent="VEl9NrGh33cWauKll-XE-54">
          <mxGeometry x="21" y="8" width="69" height="30" as="geometry" />
        </mxCell>
        <mxCell id="VEl9NrGh33cWauKll-XE-60" style="edgeStyle=orthogonalEdgeStyle;rounded=0;orthogonalLoop=1;jettySize=auto;html=1;entryX=0.5;entryY=0;entryDx=0;entryDy=0;" edge="1" parent="1" source="VEl9NrGh33cWauKll-XE-55" target="VEl9NrGh33cWauKll-XE-2">
          <mxGeometry relative="1" as="geometry" />
        </mxCell>
      </root>
    </mxGraphModel>
  </diagram>
</mxfile>
